<svg id="Capa_1" enable-background="new 0 0 512 512" height="512" viewBox="0 0 512 512" width="512" xmlns="http://www.w3.org/2000/svg"><g><g><g id="Fog_7_"><g><path d="m380.797 407.899-9.595 28.2c-.3 0-43.202-14.099-85.203-14.099-29.7 0-59.7 6.899-75 11.1-6.599 1.8-10.203 2.999-10.203 2.999-2.093.901-47.994 15.901-94.796 15.901s-92.703-15-94.797-15.901l9.595-28.2c.3 0 43.202 14.101 85.203 14.101s84.902-14.101 85.203-14.101c.897-.3 8.397-2.699 19.797-5.7 17.998-4.499 46.5-10.199 74.999-10.199 46.802 0 92.703 15 94.797 15.899z" fill="#d5e8fe"/></g><g><path d="m380.797 467.899-9.595 28.2c-.3 0-43.202-14.099-85.203-14.099-29.7 0-59.7 6.899-75 11.1-6.599 1.8-10.203 2.999-10.203 2.999-2.093.901-47.994 15.901-94.796 15.901s-92.703-15-94.797-15.901l9.595-28.2c.3 0 43.202 14.101 85.203 14.101s84.902-14.101 85.203-14.101c.897-.3 8.397-2.699 19.797-5.7 17.998-4.499 46.5-10.199 74.999-10.199 46.802 0 92.703 15 94.797 15.899z" fill="#d5e8fe"/></g></g><g id="Fog_3_"><path d="m380.797 407.899-9.595 28.2c-.3 0-43.202-14.099-85.203-14.099-29.7 0-59.7 6.899-75 11.1v-30.901c18-4.499 46.502-10.199 75.001-10.199 46.802 0 92.703 15 94.797 15.899z" fill="#b5dbff"/></g><g><g><path d="m346 241h-15v-15c0-24.814-20.186-45-45-45h-15v-15c0-41.353 33.633-75 75-75s75 33.647 75 75-33.633 75-75 75z" fill="#ffe14d"/></g><path d="m421 166c0-41.353-33.633-75-75-75v150c41.367 0 75-33.647 75-75z" fill="#fb3"/><g id="Day_4_"><g><path d="m331 0h30v61h-30z" fill="#ffe14d"/></g><g><path d="m346 0h15v61h-15z" fill="#fb3"/></g><g><path d="m451 151h61v30h-61z" fill="#fb3"/></g><g><path d="m411.452 55.538h59.994v29.997h-59.994z" fill="#fb3" transform="matrix(.707 -.707 .707 .707 79.421 332.811)"/></g><g><path d="m235.552 40.539h29.997v59.994h-29.997z" fill="#ffe14d" transform="matrix(.707 -.707 .707 .707 23.508 197.826)"/></g><g><path d="m359.801 212.199c-6.601-34.799-37.202-61.199-73.801-61.199-13.5 0-26.4 3.6-37.8 10.199-9.901-12.9-22.8-23.099-37.2-29.7-13.801-6.899-29.099-10.499-45-10.499-53.401 0-97.5 39.899-104.099 91.199-34.501 6.9-61.901 37.2-61.901 73.801 0 41.4 34.6 75 76 75h270c41.4 0 75-33.6 75-75 0-36.601-26.4-67.2-61.199-73.801z" fill="#edf5ff"/></g><path d="m421 286c0 41.4-33.6 75-75 75h-135v-229.501c14.399 6.601 27.299 16.8 37.2 29.7 11.4-6.599 24.3-10.199 37.8-10.199 36.599 0 67.2 26.4 73.801 61.199 34.799 6.601 61.199 37.2 61.199 73.801z" fill="#d5e8fe"/></g></g></g><path d="m380.797 467.899-9.595 28.2c-.3 0-43.202-14.099-85.203-14.099-29.7 0-59.7 6.899-75 11.1v-30.901c18-4.499 46.502-10.199 75.001-10.199 46.802 0 92.703 15 94.797 15.899z" fill="#b5dbff"/></g></svg>