<svg id="Capa_1" enable-background="new 0 0 511.424 511.424" height="512" viewBox="0 0 511.424 511.424" width="512" xmlns="http://www.w3.org/2000/svg"><g><path d="m264.483 89.439c.783-.153 1.395-.748 1.569-1.526 7.652-34.223 38.271-59.804 74.879-59.804 42.371 0 76.719 34.269 76.719 76.541 0 4.785-.454 9.461-1.301 14.001-.284 1.519 1.168 2.749 2.634 2.251 5.713-1.944 11.836-3.004 18.209-3.004 31.169 0 56.436 25.208 56.436 56.305s-25.267 57.907-56.436 57.907-125.168 0-158.564 0c-40.317 0-73-31.005-73-71.229 0-35.393 25.312-64.868 58.855-71.442z" fill="#8ebac5"/><g fill="#7ca1b1"><path d="m387.651 104.65c0 4.785-.454 9.461-1.302 14.001-.284 1.519 1.168 2.749 2.634 2.251 5.713-1.944 11.836-3.004 18.209-3.004 3.119 0 6.176.263 9.158.749.847-4.538 1.301-9.214 1.301-13.997 0-42.272-34.348-76.541-76.719-76.541-5.128 0-10.133.519-14.979 1.476 35.177 6.968 61.698 37.922 61.698 75.065z"/><path d="m437.192 117.897c-5.195 0-10.219.715-14.995 2.028 23.882 6.558 41.431 28.366 41.431 54.277 0 31.096-25.267 57.907-56.436 57.907h30c31.169 0 56.436-26.81 56.436-57.907 0-31.096-25.267-56.305-56.436-56.305z"/></g><path d="m422.608 214.45c-2.465 0-4.899.129-7.308.343-1.323-44.137-37.468-79.517-81.894-79.517-4.73 0-9.358.423-13.868 1.193-14.264-44.582-56.009-76.86-105.294-76.86-61.053 0-110.546 49.529-110.546 110.626 0 .324.009.645.012.968-25.185 5.198-44.12 27.514-44.12 54.256 0 5.032.683 9.901 1.939 14.535-31.125 6.942-54.4 34.725-54.4 67.965 0 38.467 31.161 69.651 69.601 69.651h345.879c45.023 0 81.521-36.524 81.521-81.579s-36.5-81.581-81.522-81.581z" fill="#eaf9fa"/><path d="m201.058 263.595s66.089-49.732 137.946 19.3c1.393 1.339 3.691.087 3.317-1.808-3.416-17.306-27.248-68.145-86.693-62.478-41.295 3.936-54.57 44.986-54.57 44.986z" fill="#d4f2f6"/><path d="m422.608 214.45c-2.465 0-4.899.129-7.308.343-1.323-44.137-37.468-79.517-81.894-79.517-4.73 0-9.358.423-13.868 1.193-14.264-44.582-56.009-76.86-105.294-76.86-12.249 0-24.03 1.998-35.042 5.678.081 0 .161-.003.242-.003 49.285 0 108.101 30.244 118.155 91.124 2.836 13.672 22.937 21.408 27.192 23.475 1.839-7.245 2.453-17.8 0-31.73 32.081 1.258 63.381 60.072 57.762 76.811 12.745-6.356 17.357-7.975 19.822-7.975 45.023 0 66.955 39.661 66.955 84.716 0 34.5-21.412 63.977-51.654 75.904h4.933c45.023 0 81.521-36.524 81.521-81.579s-36.5-81.58-81.522-81.58z" fill="#d4f2f6"/><g fill="#62dbfb"><path d="m289.189 320.863c-4.344 10.01-13.848 12.847-22.44 9.127s-13.016-12.59-8.672-22.6c3.451-7.952 18.187-15.039 24.102-17.617 1.353-.59 2.911.085 3.405 1.475 2.159 6.074 7.055 21.663 3.605 29.615z"/><path d="m208.433 380.413c-4.344 10.01-13.848 12.847-22.44 9.127-8.591-3.721-13.016-12.59-8.673-22.6 3.451-7.952 18.187-15.039 24.102-17.617 1.353-.59 2.911.085 3.405 1.475 2.16 6.074 7.056 21.663 3.606 29.615z"/><path d="m375.81 380.413c-4.344 10.01-13.848 12.847-22.44 9.127-8.591-3.721-13.016-12.59-8.672-22.6 3.451-7.952 18.187-15.039 24.102-17.617 1.353-.59 2.911.085 3.405 1.475 2.159 6.074 7.056 21.663 3.605 29.615z"/><path d="m167.054 461.413c-4.344 10.01-13.848 12.847-22.44 9.127-8.591-3.721-13.016-12.59-8.672-22.6 3.451-7.952 18.187-15.039 24.102-17.617 1.353-.59 2.911.085 3.405 1.475 2.159 6.074 7.055 21.663 3.605 29.615z"/><path d="m342.584 461.413c-4.344 10.01-13.848 12.847-22.44 9.127-8.591-3.721-13.016-12.59-8.672-22.6 3.451-7.952 18.187-15.039 24.102-17.617 1.353-.59 2.911.085 3.405 1.475 2.159 6.074 7.056 21.663 3.605 29.615z"/></g><g><path d="m476.715 225.344c51.652-42.652 14.812-125.7-51.855-113.756.943-11.257-.412-22.677-3.95-33.339-1.303-3.932-5.544-6.063-9.479-4.761-3.932 1.303-6.063 5.546-4.761 9.478 3.641 10.957 4.449 22.897 2.307 34.306-.617 3.305.575 6.722 3.112 8.919 2.545 2.204 6.113 2.897 9.31 1.809 56.222-17.141 89.585 55.924 41.716 88.717-12.253-6.291-26.209-9.846-40.889-9.76-5.181-47.874-49.196-83.838-97.654-78.725-8.778-23.011-24.543-42.594-44.693-56.133 20.634-40.074 77.921-48.994 109.621-16.643 2.956 2.902 7.704 2.86 10.606-.095s2.86-7.704-.095-10.606c-38.415-39.212-107.809-28.602-133.103 19.783-74.683-38.782-168.412 16.805-170.603 100.848-29.233 8.763-48.262 38.771-43.523 69.25-82.168 28.315-63.974 148.716 23.947 150.472h6.011c9.931-.344 9.923-14.659 0-15h-6.011c-34.242 0-62.101-27.881-62.101-62.151.686-67.149 91.946-85.99 119.122-24.663 1.644 3.801 6.059 5.551 9.861 3.907s5.551-6.059 3.907-9.861c-13.286-31.17-46.448-50.228-80.045-45.957-2.834-21.425 9.649-42.377 29.244-50.228.717 7.81 2.183 15.513 4.424 23.004 1.176 4.004 5.474 6.223 9.335 5.036 3.968-1.188 6.223-5.367 5.036-9.335-20.302-64.574 30.888-133.819 98.732-132.75 60.564-.364 109.012 53.471 102.513 113.678-.418 4.121 2.583 7.801 6.705 8.219 4.127.414 7.801-2.584 8.219-6.705 1.354-13.078.427-26.858-2.584-39.386 39.296-2.445 73.697 26.781 78.181 65.361-13.055 2.261-25.419 7.401-36.357 15.217-3.37 2.409-4.149 7.093-1.741 10.463 2.409 3.37 7.094 4.149 10.463 1.741 48.075-35.006 117.496.807 116.985 60.331.001 40.846-33.205 74.078-74.02 74.078h-38.246c-.536-7.379-2.784-15.335-5.09-21.824-.93-2.614-2.921-4.746-5.463-5.848-2.543-1.104-5.461-1.099-8.005.011-10.494 4.574-23.867 12.018-27.984 21.506-.882 2.031-1.508 4.095-1.883 6.155h-118.953c-.536-7.379-2.784-15.335-5.091-21.824-.929-2.614-2.92-4.746-5.462-5.848-2.544-1.103-5.461-1.099-8.006.011-10.494 4.575-23.867 12.019-27.985 21.506-.881 2.031-1.508 4.095-1.882 6.155h-51.263c-9.931.344-9.923 14.659 0 15h53.365c2.539 4.947 6.856 8.932 12.353 11.313 11.872 5.282 25.342.86 31.49-11.313h123.535c2.539 4.948 6.856 8.932 12.353 11.313 11.872 5.281 25.342.86 31.49-11.313h40.728c85.068-.168 120.858-108.929 54.106-159.763zm-275.162 152.082c-2.442 5.628-7.146 7.583-12.579 5.229-2.507-1.085-4.369-2.84-5.243-4.941-.932-2.24-.77-4.934.47-7.79 1.082-2.493 6.248-6.897 15.26-11.411 2.859 9.649 3.173 16.423 2.092 18.913zm167.378 0c-2.443 5.628-7.146 7.583-12.58 5.23-2.507-1.085-4.369-2.84-5.243-4.941-.932-2.24-.77-4.934.47-7.791 1.082-2.493 6.249-6.897 15.259-11.411 2.86 9.65 3.174 16.423 2.094 18.913z"/><path d="m313.244 247.4c2.726 3.12 7.464 3.438 10.583.712s3.438-7.464.712-10.582c-9.994-11.436-23.046-19.613-37.744-23.646-19.932-5.472-40.8-2.847-58.759 7.391-17.958 10.235-30.857 26.856-36.323 46.799-1.095 3.995 1.256 8.121 5.251 9.216 3.887 1.098 8.134-1.223 9.216-5.251 8.194-32.529 44.485-53.234 76.646-43.69 11.849 3.251 22.368 9.839 30.418 19.051z"/><path d="m37.644 457.883c-3.648-1.958-8.196-.587-10.155 3.063l-9.989 18.616c-1.958 3.65-.587 8.196 3.063 10.155 3.578 1.94 8.186.622 10.155-3.063l9.989-18.616c1.959-3.65.587-8.197-3.063-10.155z"/><path d="m61.619 412.499c-3.649-1.958-8.196-.587-10.155 3.062l-9.989 18.616c-1.958 3.65-.587 8.196 3.062 10.155 3.578 1.94 8.187.623 10.155-3.062l9.989-18.616c1.959-3.65.587-8.196-3.062-10.155z"/><path d="m87.416 457.883c-3.648-1.958-8.196-.587-10.155 3.063l-9.989 18.616c-1.958 3.65-.587 8.196 3.063 10.155 3.578 1.94 8.186.622 10.155-3.063l9.989-18.616c1.958-3.65.587-8.197-3.063-10.155z"/><path d="m111.39 412.499c-3.651-1.958-8.196-.587-10.155 3.062l-9.989 18.616c-1.958 3.65-.587 8.196 3.062 10.155 3.578 1.94 8.187.623 10.155-3.062l9.989-18.616c1.959-3.65.588-8.196-3.062-10.155z"/><path d="m287.186 282.886c-2.543-1.103-5.46-1.098-8.005.011-10.494 4.575-23.868 12.02-27.984 21.506-2.859 6.588-3.058 13.522-.559 19.526 2.375 5.708 7.039 10.304 13.13 12.942 12.517 5.552 26.571.368 32.3-13.023 4.118-9.49.413-24.333-3.42-35.114-.928-2.614-2.92-4.746-5.462-5.848zm-4.878 34.991c-2.442 5.627-7.144 7.584-12.579 5.229-2.507-1.085-4.369-2.84-5.243-4.941-.932-2.24-.77-4.934.471-7.791 1.081-2.492 6.248-6.896 15.259-11.411 2.86 9.65 3.174 16.423 2.092 18.914z"/><path d="m165.051 423.435c-2.542-1.102-5.46-1.099-8.005.011-10.494 4.574-23.868 12.018-27.984 21.506-2.859 6.588-3.058 13.522-.559 19.526 2.375 5.708 7.038 10.304 13.13 12.942 12.517 5.552 26.571.368 32.3-13.023 4.118-9.49.413-24.333-3.42-35.114-.928-2.614-2.919-4.746-5.462-5.848zm-4.877 34.991c-2.442 5.627-7.145 7.583-12.579 5.229-2.507-1.085-4.369-2.84-5.243-4.941-.932-2.24-.77-4.934.471-7.791 1.082-2.492 6.248-6.897 15.259-11.411 2.859 9.651 3.173 16.424 2.092 18.914z"/><path d="m213.175 457.883c-3.649-1.958-8.196-.587-10.155 3.063l-9.989 18.616c-1.958 3.65-.587 8.196 3.063 10.155 3.578 1.94 8.186.622 10.155-3.063l9.989-18.616c1.958-3.65.587-8.197-3.063-10.155z"/><path d="m237.149 412.499c-3.649-1.958-8.196-.587-10.155 3.062l-9.989 18.616c-1.958 3.65-.587 8.196 3.062 10.155 3.578 1.94 8.187.623 10.155-3.062l9.989-18.616c1.959-3.65.588-8.196-3.062-10.155z"/><path d="m262.946 457.883c-3.648-1.958-8.196-.587-10.155 3.063l-9.989 18.616c-1.958 3.65-.587 8.196 3.063 10.155 3.578 1.94 8.186.622 10.155-3.063l9.989-18.616c1.959-3.65.587-8.197-3.063-10.155z"/><path d="m286.92 412.499c-3.649-1.958-8.196-.587-10.155 3.062l-9.989 18.616c-1.958 3.65-.587 8.196 3.062 10.155 3.578 1.94 8.187.623 10.155-3.062l9.989-18.616c1.959-3.65.588-8.196-3.062-10.155z"/><path d="m340.581 423.435c-2.542-1.102-5.46-1.099-8.005.011-10.494 4.574-23.868 12.018-27.984 21.506-2.859 6.588-3.058 13.522-.559 19.526 2.375 5.708 7.038 10.304 13.13 12.942 12.517 5.552 26.571.368 32.3-13.023 4.118-9.49.413-24.333-3.42-35.114-.928-2.614-2.919-4.746-5.462-5.848zm-4.877 34.991c-2.442 5.627-7.145 7.583-12.579 5.229-2.507-1.085-4.369-2.84-5.243-4.941-.932-2.24-.77-4.934.471-7.791 1.082-2.492 6.248-6.897 15.259-11.411 2.86 9.651 3.173 16.424 2.092 18.914z"/><path d="m388.705 457.883c-3.649-1.958-8.196-.587-10.155 3.063l-9.989 18.616c-1.958 3.65-.587 8.196 3.063 10.155 3.578 1.94 8.186.622 10.155-3.063l9.989-18.616c1.958-3.65.587-8.197-3.063-10.155z"/><path d="m412.679 412.499c-3.65-1.958-8.197-.587-10.155 3.062l-9.989 18.616c-1.958 3.65-.587 8.196 3.062 10.155 3.578 1.94 8.187.623 10.155-3.062l9.989-18.616c1.959-3.65.588-8.196-3.062-10.155z"/><path d="m438.476 457.883c-3.649-1.958-8.196-.587-10.155 3.063l-9.989 18.616c-1.958 3.65-.587 8.196 3.063 10.155 3.578 1.94 8.186.622 10.155-3.063l9.989-18.616c1.959-3.65.587-8.197-3.063-10.155z"/><path d="m462.451 412.499c-3.649-1.958-8.196-.587-10.155 3.062l-9.989 18.616c-1.958 3.65-.587 8.196 3.062 10.155 3.578 1.94 8.187.623 10.155-3.062l9.989-18.616c1.959-3.65.587-8.196-3.062-10.155z"/></g></g></svg>