<svg id="Capa_1" enable-background="new 0 0 512 512" height="512" viewBox="0 0 512 512" width="512" xmlns="http://www.w3.org/2000/svg"><g><path d="m411.207 438.193-32.133-32.133c-5.857-5.858-15.355-5.858-21.213 0s-5.858 15.355 0 21.213l6.527 6.527h-252.988c-8.284 0-15 6.716-15 15s6.716 15 15 15h252.987l-6.527 6.527c-5.858 5.858-5.858 15.355 0 21.213 5.857 5.858 15.355 5.858 21.213 0l32.133-32.133c5.859-5.859 5.859-15.356.001-21.214z" fill="#374969"/><g><path d="m111.4 351.333c-61.426 0-111.4-49.974-111.4-111.4 0-89.831 95.521-212.916 99.587-218.111 2.843-3.633 7.2-5.755 11.812-5.755s8.969 2.123 11.812 5.755c4.066 5.195 99.587 128.28 99.587 218.111.002 61.426-49.972 111.4-111.398 111.4z" fill="#25f5eb"/><g><path d="m497 224.933c8.284 0 15 6.716 15 15 0 3.978-1.581 7.793-4.394 10.606l-96.4 96.4c-2.813 2.813-6.628 4.394-10.606 4.394s-7.793-1.581-10.606-4.394l-96.4-96.4c-2.813-2.813-4.394-6.628-4.394-10.606 0-8.284 6.716-15 15-15z" fill="#bbd0e9"/><path d="m497 142.467c8.284 0 15-6.716 15-15 0-3.978-1.581-7.793-4.394-10.606l-96.4-96.4c-2.813-2.813-6.628-4.394-10.606-4.394s-7.793 1.581-10.606 4.394l-96.4 96.4c-2.813 2.813-4.394 6.628-4.394 10.606 0 8.284 6.716 15 15 15z" fill="#f0f7fb"/><path d="m507.606 250.54c2.813-2.813 4.394-6.628 4.394-10.606 0-8.284-6.716-15-15-15h-96.4v126.4c3.978 0 7.793-1.581 10.606-4.394z" fill="#a0bcdf"/><path d="m512 127.467c0-3.978-1.581-7.793-4.394-10.606l-96.4-96.4c-2.813-2.813-6.628-4.394-10.606-4.394v126.4h96.4c8.284 0 15-6.716 15-15z" fill="#d6e4f3"/><path d="m289.2 127.467h222.8v112.466h-222.8z" fill="#d6e4f3"/><path d="m400.6 127.467h111.4v112.466h-111.4z" fill="#bbd0e9"/></g><path d="m111.4 16.067c4.613 0 8.969 2.123 11.812 5.755 4.066 5.195 99.587 128.28 99.587 218.111 0 61.426-49.974 111.4-111.4 111.4v-335.266z" fill="#01d2e3"/></g></g></svg>