<svg xmlns="http://www.w3.org/2000/svg" version="1.1" xmlns:xlink="http://www.w3.org/1999/xlink" width="512" height="512" x="0" y="0" viewBox="0 0 24 24" style="enable-background:new 0 0 512 512" xml:space="preserve" class=""><g><path d="M12 0a12 12 0 1 0 12 12A12.013 12.013 0 0 0 12 0Zm8.657 7h-3.226A19.675 19.675 0 0 0 14.6 2.342 10.041 10.041 0 0 1 20.657 7ZM16.5 12a10.209 10.209 0 0 1-.473 3H7.973a10.209 10.209 0 0 1-.473-3 10.209 10.209 0 0 1 .473-3h8.054a10.209 10.209 0 0 1 .473 3Zm-7.726 5h6.452A19.562 19.562 0 0 1 12 21.588 19.562 19.562 0 0 1 8.774 17Zm0-10A19.562 19.562 0 0 1 12 2.412 19.562 19.562 0 0 1 15.226 7ZM9.4 2.342A19.7 19.7 0 0 0 6.569 7H3.343A10.041 10.041 0 0 1 9.4 2.342ZM2.46 9h3.432a11.676 11.676 0 0 0 0 6H2.46a10.013 10.013 0 0 1 0-6Zm.883 8h3.226A19.675 19.675 0 0 0 9.4 21.658 10.041 10.041 0 0 1 3.343 17ZM14.6 21.658A19.7 19.7 0 0 0 17.431 17h3.226a10.041 10.041 0 0 1-6.057 4.658ZM21.54 15h-3.432a11.676 11.676 0 0 0 0-6h3.432a10.013 10.013 0 0 1 0 6Z" fill="#ffffff" opacity="1" data-original="#000000"></path></g></svg>