<svg id="Capa_1" enable-background="new 0 0 512.001 512.001" height="512" viewBox="0 0 512.001 512.001" width="512" xmlns="http://www.w3.org/2000/svg"><g><g><g><path d="m456.711 72.036c-5.954 1.222-14.506-2.293-19.54-4.666-8.52-31.56-35.179-56.278-72.958-56.278-2.029 0-8.103-2.443-8.103-2.443-8.165.545-15.989 2.188-23.288 4.769-20.436 7.211-36.776 21.737-45.027 39.987-.663 1.466-2.364 2.126-3.854 1.519-7.149-2.912-15.083-4.542-23.445-4.542-31.406 0-56.866 22.858-56.866 51.056 0 2.956.296 5.848.833 8.667-14.094 8.523-23.365 22.981-23.365 39.384 0 26.207 23.663 47.452 52.852 47.452 5.303 0 10.42-.709 15.25-2.014 10.183 13.781 27.612 22.871 47.412 22.871 15.697 0 29.908-5.71 40.197-14.943 5.152 4.084 10.101 6.489 15.418 7.902-.459.232-.912.465-1.405.69 8.88 4.07 18.82 6.35 29.32 6.35 22.882-3.786 43.959-16.195 56.109-34.035 11.625-7.296 19.783-3.161 19.783-3.161 27.626-8.268 42.114-27.91 42.114-55.492-.002-27.896-13.327-45.058-41.437-53.073z" fill="#9f9d9c"/><path d="m504.5 125.736c0 27.587-19.919 50.981-47.545 59.252 0 0-8.164-4.135-19.783 3.164-12.153 17.832-33.15 29.645-57.029 29.645-.417 0-.835 0-1.243-.019 32.722-23.588 53.466-58.63 53.466-97.759 0-47.574-30.674-89.12-76.258-111.369 1.99-.136 3.999-.204 6.028-.204 37.78 0 69.434 23.462 77.957 55.02 5.028 2.378 9.969 3.97 15.929 2.757 28.113 8.007 48.478 31.615 48.478 59.513z" fill="#81807f"/><path d="m332.821 168.027c-.809-.162-3.905-2.114-4.725-2.247-2.4-5.788-4.265-12.531-4.265-12.531-7.972-19.963-22.228-36.635-45.041-36.635-5.36 0-8.54-.135-13.43 1.325-1.175.351-2.671-1.11-3.623-1.735-.677-.444-1.219-1.107-1.527-1.925-11.2-29.63-41.16-50.83-76.37-50.83-11.37-.03-22.26 2.23-32.17 6.33-24.072 9.935-42.333 30.663-47.46 55.7 4.312 6.2 1.852 10.532-1.46 15.05-49.383-5.307-95.694 30.912-95.247 76.2 0 42.329 38.55 76.641 86.099 76.641 14.404 0 27.978-3.16 39.908-8.732 4.085-6.235 5.87-7.596 13.48-7.8 16.195 15.759 40.934 25.825 68.662 25.825 6.41 0 12.661-.538 18.683-1.561 19.65-9.215 38.493-18.615 51.032-31.689 5.922-1.61 12.412 2.426 15.416 9.599 1.988.727 14.374 2.936 20.352 2.936 35.87 0 57.877-22.087 57.877-55.977 0-29.497-16.834-52.054-46.191-57.944z" fill="#81807f"/><path d="m388.307 224.699c0 33.887-29.063 61.368-64.94 61.368-5.97 0-11.775-.767-17.269-2.204h-.01c-2.077-.544-4.106-1.184-6.096-1.912-3.009-7.173-7.902-8.581-13.823-6.97-12.542 13.066-30.801 22.549-51.836 26.112 31.888-26.791 51.836-65.018 51.836-107.466 0-28.422-8.95-54.951-24.433-77.423.951.621 2.165.825 3.339.476 4.892-1.466 10.086-2.242 15.444-2.242 22.812 0 42.323 14.095 50.292 34.062 0 0-1.213 8.028 1.184 13.813.815.136 3.912 2.087 4.727 2.242 29.356 5.891 51.585 30.644 51.585 60.144z" fill="#6d6d6d"/></g><g><path d="m449.6 225.655c.711-2.064 2.655-3.447 4.834-3.447h10.782l11.886 1.228c2.319 0 3.936 2.29 3.155 4.471l-13.426 40.396c-.35.98 1.433 1.967 2.384 2.208.136.034.279.053.428.053h9.579l11.155.967c6.981 0 10.948 8.005 6.715 13.562l-42.273 56.742c-2.253 2.966-6.955.727-6.072-2.892l.866-9.001 7.496-30.75c.264-1.084-.556-2.129-1.672-2.129h-23.249c-3.514 0-5.981-3.463-4.841-6.793z" fill="#ffcf57"/><g fill="#ffb948"><path d="m451.958 268.266 14.828-41.588c.78-2.18-.832-4.469-3.155-4.469h16.062c2.323 0 3.935 2.289 3.155 4.469l-14.828 41.588c-.396 1.119.43 2.3 1.623 2.3h-16.062c-1.192 0-2.019-1.182-1.623-2.3z"/><path d="m500.476 284.127-48.483 63.822c-2.254 2.966-6.952.729-6.069-2.891l3.688-15.115 34.802-45.816c4.228-5.558.264-13.56-6.717-13.56h16.062c6.98-.001 10.944 8.001 6.717 13.56z"/></g></g><g><path d="m128.97 252.363c1.239-3.598 4.628-6.01 8.426-6.01h41.61c4.043 0 6.861 3.993 5.5 7.795l-25.5 72.563c-.61 1.709 2.499 3.429 4.156 3.849.237.06.486.092.745.092h16.699l19.446 1.686c12.17 0 19.085 13.954 11.707 23.643l-73.694 98.917c-3.928 5.171-12.124 1.267-10.585-5.041l1.51-15.692 13.068-53.607c.461-1.889-.97-3.711-2.915-3.711h-40.529c-6.126 0-10.427-6.037-8.44-11.842z" fill="#ffcf57"/><g fill="#ffb948"><path d="m133.081 326.646 25.85-72.5c1.36-3.8-1.45-7.79-5.5-7.79h28c4.05 0 6.86 3.99 5.5 7.79l-25.85 72.5c-.69 1.95.75 4.01 2.83 4.01h-28c-2.08 0-3.52-2.06-2.83-4.01z"/><path d="m217.66 354.296-84.52 111.26c-3.93 5.17-12.12 1.27-10.58-5.04l6.43-26.35 60.67-79.87c7.37-9.69.46-23.64-11.71-23.64h28c12.17 0 19.081 13.95 11.71 23.64z"/></g></g><g><path d="m320.935 343.664c.95-2.758 3.548-4.607 6.459-4.607h14.408l15.883 1.641c3.099 0 5.259 3.061 4.216 5.975l-17.941 53.982c-.467 1.31 1.915 2.629 3.186 2.95.181.046.373.071.571.071h12.8l14.906 1.292c9.329 0 14.63 10.697 8.974 18.124l-56.49 75.825c-3.011 3.963-9.293.971-8.114-3.864l1.158-12.029 10.017-41.092c.353-1.448-.743-2.845-2.234-2.845h-31.069c-4.696 0-7.993-4.628-6.47-9.078z" fill="#ffcf57"/><g fill="#ffb948"><path d="m324.086 400.605 19.815-55.574c1.043-2.913-1.111-5.971-4.216-5.971h21.463c3.105 0 5.259 3.059 4.216 5.971l-19.815 55.574c-.529 1.495.575 3.074 2.169 3.074h-21.463c-1.594 0-2.698-1.579-2.169-3.074z"/><path d="m388.92 421.8-64.788 85.286c-3.013 3.963-9.29.974-8.11-3.863l4.929-20.198 46.506-61.224c5.65-7.428.353-18.121-8.976-18.121h21.463c9.329-.001 14.626 10.692 8.976 18.12z"/></g></g><path d="m208.21 250.017c-12.047 6.708-26.896 10.668-42.958 10.668-23.413 0-44.248-8.413-57.586-21.489 0 0 6.569-33.11 53.889-26.478s46.655 37.299 46.655 37.299z" fill="#81807f"/></g><g><path d="m495.413 265.678h-17.184l12.795-37.135c1.216-3.394.703-7.179-1.371-10.125-2.076-2.949-5.471-4.71-9.08-4.71h-27.424c-5.544 0-10.48 3.521-12.285 8.763l-23.923 69.458c-1.359 3.969-.715 8.376 1.724 11.789 2.435 3.408 6.389 5.442 10.575 5.442h17.776l-7.191 29.278c-1.605 6.52 1.505 13.094 7.562 15.987 1.97.94 4.045 1.394 6.09 1.394 4.242 0 8.35-1.952 11.091-5.558l44.028-57.961c3.844-5.047 4.481-11.715 1.664-17.402-2.817-5.688-8.506-9.22-14.847-9.22zm1.244 17.539-41.119 54.132 8.327-33.902c.55-2.237.041-4.604-1.381-6.417s-3.599-2.872-5.902-2.872h-24.544l22.542-65.451h20.522l-14.48 42.027c-.79 2.292-.423 4.824.984 6.798s3.683 3.146 6.106 3.146h27.7c.646 0 1.118.295 1.406.877.29.582.237 1.139-.161 1.662z"/><path d="m205.953 323.155h-35.662l7.133-20c11.985 4.181 25.072 6.38 38.228 6.38 27.691 0 53.422-9.341 71.595-25.811 10.964 6.029 23.334 9.191 36.125 9.191 40.288.018 73.053-31.529 72.421-69.931 18.171-3.695 34.318-13.729 45.358-28.288 18.5-1.339 35.709-8.628 48.797-20.74 14.22-13.16 22.052-30.576 22.052-49.039 0-34.914-28.688-64.485-66.216-69.312-11.422-32.986-45.033-55.599-83.643-55.599-34.045 0-64.97 18.047-79.327 45.597-7.115-2.407-14.592-3.623-22.318-3.623-17.594 0-34.374 6.565-46.487 18.079-9.565-3.293-19.716-5.004-30.15-5.004-24.154-.055-47.658 9.622-64.462 26.547-13.814 13.914-22.106 31.49-23.816 50.13-13.516-.335-27.093 2.127-39.714 7.242-3.839 1.556-5.69 5.929-4.135 9.768 1.555 3.838 5.931 5.689 9.768 4.135 21.324-8.739 46.154-8.011 67.068 1.116.98.43 2.003.634 3.009.634 2.887 0 5.639-1.676 6.872-4.489 1.664-3.793-.062-8.217-3.855-9.881-7.654-3.358-15.728-5.725-24.073-7.093 1.394-15.217 8.19-29.579 19.521-40.992 13.999-14.101 33.609-22.162 53.801-22.116 16.197 0 31.558 4.852 44.42 14.032 12.37 8.829 21.623 21.349 26.055 35.255.624 1.96 2.027 3.578 3.88 4.474 1.852.896 3.992.992 5.916.265 5.245-1.981 10.766-2.986 16.409-2.986 20.938 0 39.062 14.185 44.763 33.653-12.652-.574-25.504 2.171-36.711 7.596-3.726 1.809-5.279 6.297-3.471 10.022 1.298 2.671 3.97 4.226 6.753 4.226 1.099 0 2.215-.243 3.271-.755 8.322-4.041 17.727-6.177 27.197-6.177 9.026.293 17.966 2.091 26.171 5.807 1.011.461 2.07.68 3.112.68 2.846 0 5.566-1.628 6.826-4.385 1.722-3.768.063-8.217-3.704-9.939-4.337-1.981-8.855-3.542-13.489-4.661-2.299-13.229-8.852-25.353-18.8-34.599-11.428-10.62-26.314-16.469-41.918-16.469-4.921 0-9.773.579-14.5 1.726-6.017-14.152-16.14-26.731-29.046-35.943-2.522-1.8-5.131-3.447-7.802-4.967 8.77-6.373 19.796-9.931 31.323-9.931 8.099 0 15.83 1.69 22.978 5.025 1.87.872 4.012.936 5.932.177 1.917-.759 3.437-2.273 4.203-4.188 10.286-25.712 37.828-42.988 68.533-42.988 33.774 0 62.849 20.367 70.704 49.528 2.485 9.224 2.003 19.02-1.574 27.919-1.543 3.844.322 8.211 4.166 9.754.916.368 1.861.542 2.792.542 2.973 0 5.787-1.78 6.962-4.708 3.419-8.516 4.817-17.569 4.064-26.635 27.43 5.783 47.742 27.811 47.742 53.511 0 14.235-6.123 27.741-17.241 38.03-8.079 7.477-18.151 12.668-29.184 15.201 3.381-8.371 5.141-17.314 5.141-26.442 0-4.142-3.357-7.5-7.5-7.5s-7.5 3.358-7.5 7.5c0 11.149-3.325 21.961-9.613 31.287-.044.061-.095.116-.137.178-8.626 12.687-21.935 21.542-37.108 24.899-1.799-7.248-4.819-14.189-8.997-20.552-1.314-2.169-3.698-3.618-6.421-3.618-4.143 0-7.5 3.363-7.5 7.505 0 1.475.435 2.917 1.25 4.146 5.64 8.503 8.62 18.335 8.62 28.434 0 29.737-25.768 53.93-57.439 53.93-9.057 0-17.835-1.976-25.795-5.755 7.123-9.535 11.53-18.93 13.675-29.057.858-4.052-1.73-8.033-5.782-8.892-4.05-.86-8.033 1.73-8.892 5.782-2.113 9.973-7.188 19.275-15.96 29.268-15.248 15.826-39.514 25.273-64.966 25.273-11.454 0-22.814-1.898-33.19-5.507l8.614-24.153c7.354-1.945 14.346-4.721 20.784-8.306 3.619-2.016 4.919-6.583 2.904-10.202s-6.585-4.918-10.201-2.904c-11.42 6.359-25.013 9.721-39.31 9.721-20.719 0-39.794-7.051-52.335-19.344-2.954-2.898-7.703-2.854-10.605.105-2.9 2.958-2.853 7.707.105 10.606 4.946 4.849 10.692 9.019 17.022 12.459l-9.183 26.654c-5.443 1.033-11.035 1.561-16.654 1.561-43.34 0-78.6-31.052-78.6-69.293-.161-16.552 6.835-32.71 19.698-45.498 2.938-2.92 2.951-7.669.03-10.606-2.92-2.938-7.669-2.951-10.606-.031-15.754 15.665-24.321 35.653-24.121 56.209 0 46.439 41.988 84.22 93.6 84.22 3.734 0 7.461-.202 11.153-.595l-5.744 16.673c-1.35 3.916.731 8.185 4.647 9.534.81.279 1.634.411 2.443.411 3.112 0 6.021-1.952 7.091-5.059l20.044-58.179c9.95 3.368 20.8 5.176 32.015 5.176 2.977 0 5.93-.132 8.852-.381l-21.517 60.331c-.818 2.297-.471 4.848.935 6.841 1.405 1.993 3.691 3.178 6.13 3.178h46.3c2.8 0 5.215 1.5 6.461 4.013 1.248 2.517.979 5.353-.724 7.59l-80.12 105.469 18.679-76.606c.546-2.236.034-4.599-1.388-6.41-1.422-1.81-3.597-2.867-5.898-2.867h-44.35c-.599 0-.955-.322-1.148-.593-.199-.278-.395-.734-.2-1.304l4.1-11.9c1.35-3.916-.731-8.185-4.647-9.534-3.922-1.349-8.186.732-9.534 4.648l-4.107 11.923c-1.711 5.02-.893 10.588 2.191 14.896 3.075 4.298 8.064 6.863 13.347 6.863h34.801l-18.137 74.382c-1.532 6.277 1.471 12.602 7.302 15.38 1.893.902 3.888 1.337 5.854 1.337 4.085 0 8.043-1.88 10.684-5.353l84.517-111.256c5.148-6.769 5.999-15.708 2.22-23.331-3.779-7.615-11.404-12.347-19.902-12.347z"/><path d="m379.461 399.195h-25.533l17.695-51.356c1.332-3.726.766-7.881-1.513-11.115-2.28-3.236-6.007-5.168-9.97-5.168h-35.689c-6.253 0-11.82 3.971-13.851 9.877l-31.133 90.396c-1.537 4.477-.815 9.447 1.933 13.296 2.744 3.845 7.205 6.14 11.931 6.14h26.025l-10.048 40.915c-1.831 7.429 1.71 14.923 8.613 18.223 2.247 1.074 4.615 1.592 6.949 1.592 4.835 0 9.517-2.224 12.643-6.334l20.34-26.78c2.505-3.298 1.862-8.003-1.437-10.509-3.297-2.505-8.003-1.862-10.509 1.437l-20.337 26.776c-.222.292-.476.621-1.18.285-.707-.338-.606-.743-.518-1.106l12.33-50.21c.55-2.237.04-4.604-1.381-6.417-1.422-1.813-3.599-2.872-5.902-2.872h-35.116l30.896-89.709h31.499l-19.88 57.696c-.79 2.292-.423 4.824.984 6.798s3.683 3.146 6.106 3.146h36.05c2.404 0 3.495 1.677 3.852 2.397.359.724 1.035 2.615-.434 4.545l-14.479 19.06c-2.506 3.298-1.863 8.003 1.435 10.509 3.299 2.506 8.004 1.863 10.509-1.435l14.477-19.056c4.478-5.884 5.219-13.657 1.934-20.285-3.281-6.622-9.907-10.736-17.291-10.736z"/></g></g></svg>