<svg id="Capa_1" enable-background="new 0 0 512 512" height="512" viewBox="0 0 512 512" width="512" xmlns="http://www.w3.org/2000/svg"><g><path d="m265.122 81.064c.807-.158 1.438-.771 1.617-1.572 7.882-35.256 39.426-61.609 77.139-61.609 43.65 0 79.035 35.303 79.035 78.851 0 4.929-.468 9.747-1.341 14.423-.292 1.565 1.204 2.832 2.713 2.318 5.885-2.003 12.194-3.094 18.759-3.094 32.109 0 58.139 25.969 58.139 58.004s-26.03 59.654-58.139 59.654-128.946 0-163.349 0c-41.534 0-75.204-31.941-75.204-73.379 0-36.459 26.075-66.823 60.631-73.596z" fill="#8ebac5"/><g fill="#7ca1b1"><path d="m392.007 96.734c0 4.929-.468 9.747-1.341 14.423-.292 1.565 1.204 2.832 2.713 2.318 5.885-2.003 12.194-3.094 18.759-3.094 3.213 0 6.362.271 9.434.772.873-4.675 1.34-9.492 1.34-14.419 0-43.548-35.385-78.851-79.035-78.851-5.283 0-10.439.535-15.432 1.521 36.24 7.178 63.562 39.066 63.562 77.33z"/><path d="m443.044 110.382c-5.351 0-10.528.736-15.448 2.089 24.603 6.756 42.682 29.222 42.682 55.915 0 32.035-26.03 59.654-58.139 59.654h30.905c32.11 0 58.139-27.62 58.139-59.654 0-32.035-26.03-58.004-58.139-58.004z"/></g><g><path d="m428.019 209.848c-1.944 0-3.87.078-5.779.213-.957.068-1.771-.657-1.819-1.615-2.255-44.649-39.118-80.162-84.295-80.162-4.333 0-8.583.345-12.739.979-.895.137-1.749-.383-2.036-1.242-15.141-45.154-57.763-77.688-107.983-77.688-62.896 0-112.707 51.035-113.882 113.964-.011.565.066.997-.36 1.075-25.945 5.355-45.079 28.266-45.079 55.816 0 4.828.61 9.512 1.74 13.99.137.543-.191 1.083-.735 1.213-31.569 7.517-55.052 35.899-55.052 69.787 0 39.628 32.102 71.753 71.701 71.753h356.318c46.382 0 83.981-37.627 83.981-84.041s-37.6-84.042-83.981-84.042z" fill="#eaf9fa"/><path d="m199.783 260.477s68.084-51.232 142.109 19.883c1.435 1.379 3.803.09 3.417-1.863-3.519-17.828-28.071-70.202-89.309-64.364-42.542 4.055-56.217 46.344-56.217 46.344z" fill="#d4f2f6"/><path d="m428.019 209.848c-1.944 0-3.87.078-5.779.213-.957.068-1.771-.657-1.819-1.615-2.255-44.649-39.118-80.162-84.295-80.162-4.333 0-8.583.345-12.739.979-.895.137-1.749-.383-2.036-1.242-15.141-45.154-57.763-77.688-107.983-77.688-12.618 0-24.756 2.058-36.1 5.85.083 0 .166-.003.249-.003 50.772 0 111.364 31.157 121.721 93.874 2.921 14.085 23.63 22.054 28.012 24.183 1.894-7.464 2.527-18.337 0-32.687 33.049 1.296 65.294 61.885 59.505 79.13 13.13-6.547 17.881-8.216 20.42-8.216 46.382 0 68.976 40.858 68.976 87.272 0 35.542-22.058 65.908-53.213 78.195h5.082c46.382 0 83.981-37.627 83.981-84.041s-37.601-84.042-83.982-84.042z" fill="#d4f2f6"/><g fill="#cbe5e8"><path d="m136.776 277.737c-.97.42-1.98.62-2.97.62-2.9 0-5.67-1.7-6.89-4.53-10.18-23.54-33.32-38.75-58.95-38.75-4.3 0-8.58.42-12.75 1.26.44-.19.69-.68.57-1.16-1.12-4.45-1.73-9.09-1.74-13.88 4.58-.81 9.24-1.22 13.92-1.22 31.61 0 60.16 18.76 72.72 47.8 1.64 3.8-.11 8.21-3.91 9.86z"/><path d="m422.026 210.047c-13.88 1.3-27.01 6.3-38.27 14.64-1.31.97-2.82 1.45-4.33 1.48-2.34.04-4.66-1.01-6.16-3.04-2.47-3.33-1.77-8.02 1.56-10.49 12.97-9.61 28-15.52 43.89-17.32.9 4.27 1.47 8.65 1.7 13.13.05.89.76 1.57 1.61 1.6z"/><path d="m340.946 159.127c0 4.14-.21 8.32-.63 12.41-.39 3.86-3.65 6.74-7.45 6.74-.25 0-.51-.01-.77-.04-4.12-.42-7.12-4.1-6.7-8.22.36-3.59.55-7.25.55-10.89 0-10.83-1.61-21.46-4.79-31.66.07.18.13.37.19.55.29.86 1.14 1.38 2.04 1.25 4.16-.64 8.41-.98 12.74-.98.29 0 .58 0 .87.01 2.63 10.01 3.95 20.33 3.95 30.83z"/><path d="m98.876 202.607c-.72.21-1.44.31-2.16.31-3.22 0-6.21-2.1-7.18-5.35-2.63-8.8-4.25-17.89-4.83-27.1 4.48-2.31 9.32-4.04 14.42-5.09.29-.06.35-.28.35-.6.19 9.7 1.68 19.27 4.43 28.49 1.19 3.97-1.06 8.15-5.03 9.34z"/><path d="m326.819 233.774c-10.266-11.748-23.672-20.147-38.771-24.291-20.475-5.62-41.913-2.922-60.36 7.593-18.448 10.515-31.699 27.588-37.313 48.076-1.095 3.995 1.257 8.121 5.251 9.215.664.182 1.331.269 1.986.269 3.296 0 6.316-2.188 7.229-5.52 4.556-16.624 15.307-30.478 30.274-39.008 14.966-8.529 32.353-10.717 48.963-6.16 12.25 3.362 23.124 10.173 31.446 19.696 2.726 3.121 7.464 3.438 10.583.712s3.438-7.463.712-10.582z"/></g></g><g fill="#62dbfb"><path d="m290.573 319.473c-4.475 10.312-14.266 13.235-23.117 9.402s-13.409-12.97-8.934-23.282c3.555-8.192 18.736-15.493 24.829-18.149 1.394-.608 2.999.087 3.508 1.519 2.225 6.259 7.269 22.318 3.714 30.51z"/><path d="m207.38 380.82c-4.475 10.312-14.266 13.235-23.117 9.402s-13.409-12.97-8.934-23.282c3.555-8.192 18.736-15.493 24.829-18.149 1.394-.608 2.999.087 3.508 1.519 2.224 6.259 7.269 22.318 3.714 30.51z"/><path d="m379.809 380.82c-4.475 10.312-14.266 13.235-23.117 9.402s-13.409-12.97-8.934-23.282c3.555-8.192 18.736-15.493 24.829-18.149 1.394-.608 2.999.087 3.508 1.519 2.225 6.259 7.269 22.318 3.714 30.51z"/><path d="m164.752 464.265c-4.475 10.312-14.266 13.235-23.117 9.402s-13.409-12.97-8.934-23.282c3.555-8.192 18.736-15.493 24.829-18.149 1.394-.608 2.999.087 3.508 1.519 2.225 6.258 7.269 22.318 3.714 30.51z"/><path d="m345.58 464.265c-4.475 10.312-14.266 13.235-23.117 9.402s-13.409-12.97-8.934-23.282c3.555-8.192 18.736-15.493 24.829-18.149 1.394-.608 2.999.087 3.508 1.519 2.225 6.258 7.269 22.318 3.714 30.51z"/><g><path d="m31.33 460.829c-3.648-1.957-8.196-.588-10.155 3.063l-10.29 19.178c-1.958 3.649-.587 8.196 3.062 10.155 1.129.605 2.343.893 3.54.893 2.674 0 5.262-1.434 6.615-3.956l10.291-19.178c1.959-3.65.587-8.197-3.063-10.155z"/><path d="m56.027 414.075c-3.649-1.958-8.196-.587-10.155 3.063l-10.29 19.178c-1.958 3.65-.587 8.196 3.063 10.155 1.128.605 2.342.893 3.54.893 2.674 0 5.262-1.434 6.615-3.956l10.29-19.178c1.958-3.65.587-8.197-3.063-10.155z"/><path d="m82.604 460.829c-3.65-1.957-8.196-.588-10.155 3.063l-10.29 19.178c-1.958 3.649-.587 8.196 3.063 10.155 1.128.605 2.342.893 3.54.893 2.674 0 5.262-1.434 6.615-3.956l10.291-19.178c1.957-3.65.586-8.197-3.064-10.155z"/><path d="m107.301 414.075c-3.648-1.958-8.195-.587-10.155 3.063l-10.291 19.178c-1.958 3.649-.587 8.196 3.062 10.155 1.129.605 2.343.893 3.54.893 2.674 0 5.262-1.434 6.615-3.956l10.291-19.178c1.959-3.65.588-8.197-3.062-10.155z"/><path d="m212.158 460.829c-3.648-1.957-8.195-.588-10.155 3.063l-10.291 19.178c-1.958 3.649-.587 8.196 3.062 10.155 1.129.605 2.343.893 3.54.893 2.674 0 5.262-1.434 6.615-3.956l10.291-19.178c1.96-3.65.588-8.197-3.062-10.155z"/><path d="m236.855 414.075c-3.651-1.958-8.196-.587-10.155 3.063l-10.291 19.178c-1.958 3.649-.587 8.196 3.063 10.155 1.128.605 2.342.893 3.54.893 2.674 0 5.262-1.434 6.615-3.956l10.291-19.178c1.958-3.65.587-8.197-3.063-10.155z"/><path d="m263.432 460.829c-3.649-1.957-8.196-.588-10.155 3.063l-10.29 19.178c-1.958 3.65-.587 8.196 3.063 10.155 1.128.605 2.342.893 3.54.893 2.674 0 5.262-1.434 6.615-3.956l10.29-19.178c1.958-3.65.587-8.197-3.063-10.155z"/><path d="m288.129 414.075c-3.648-1.958-8.196-.587-10.155 3.063l-10.291 19.178c-1.958 3.649-.587 8.196 3.062 10.155 1.129.605 2.343.893 3.54.893 2.674 0 5.262-1.434 6.615-3.956l10.291-19.178c1.959-3.65.588-8.197-3.062-10.155z"/><path d="m392.986 460.829c-3.648-1.957-8.196-.588-10.155 3.063l-10.291 19.178c-1.958 3.649-.587 8.196 3.062 10.155 1.129.605 2.343.893 3.54.893 2.674 0 5.262-1.434 6.615-3.956l10.291-19.178c1.96-3.65.588-8.197-3.062-10.155z"/><path d="m417.684 414.075c-3.65-1.958-8.197-.587-10.155 3.063l-10.291 19.178c-1.958 3.649-.587 8.196 3.063 10.155 1.128.605 2.342.893 3.54.893 2.674 0 5.262-1.434 6.615-3.956l10.291-19.178c1.958-3.65.586-8.197-3.063-10.155z"/><path d="m444.26 460.829c-3.648-1.957-8.196-.588-10.155 3.063l-10.291 19.178c-1.958 3.649-.587 8.196 3.062 10.155 1.129.605 2.343.893 3.54.893 2.674 0 5.262-1.434 6.615-3.956l10.291-19.178c1.959-3.65.588-8.197-3.062-10.155z"/><path d="m468.957 414.075c-3.648-1.958-8.196-.587-10.155 3.063l-10.291 19.178c-1.958 3.649-.587 8.196 3.062 10.155 1.129.605 2.343.893 3.54.893 2.674 0 5.262-1.434 6.615-3.956l10.291-19.178c1.96-3.65.588-8.197-3.062-10.155z"/></g></g></g></svg>