<svg height="512" viewBox="0 0 64 64" width="512" xmlns="http://www.w3.org/2000/svg"><g id="Layer_31" data-name="Layer 31"><path d="m48.257 63-27.257-9.888 6.378-17.464a4.147 4.147 0 0 1 5.311-2.469l19.469 7.063a4.127 4.127 0 0 1 2.477 5.294z" fill="#fcab68"/><path d="m61.626 6.318-14.311-5.192a2.067 2.067 0 0 0 -2.784 1.9 19.831 19.831 0 0 0 3.184 10.774 2.094 2.094 0 0 1 .206 1.821l-7.444 20.379 3.893 1.413 7.444-20.385a2.109 2.109 0 0 1 1.333-1.264 19.951 19.951 0 0 0 9.388-6.215 2.057 2.057 0 0 0 -.909-3.231zm-3.837 3.557a17.335 17.335 0 0 1 -4.581 2.582 2.832 2.832 0 0 1 -3.4-1.235 17.206 17.206 0 0 1 -1.845-4.913 1.031 1.031 0 0 1 1.367-1.155l8.154 2.958a1.028 1.028 0 0 1 .305 1.763z" fill="#fcab68"/><g fill="#ea8e49"><path d="m26.311 51.644a1 1 0 0 1 -.939-1.343l4.96-13.583a1 1 0 1 1 1.879.685l-4.961 13.583a1 1 0 0 1 -.939.658z"/><path d="m30.205 53.057a1 1 0 0 1 -.939-1.343l4.96-13.584a1 1 0 0 1 1.879.685l-4.96 13.585a1 1 0 0 1 -.94.657z"/><path d="m34.1 54.469a1 1 0 0 1 -.94-1.343l4.96-13.584a1 1 0 1 1 1.88.686l-4.962 13.584a1 1 0 0 1 -.938.657z"/><path d="m37.993 55.881a1.011 1.011 0 0 1 -.344-.061 1 1 0 0 1 -.6-1.282l4.961-13.583a1 1 0 1 1 1.879.686l-4.957 13.583a1 1 0 0 1 -.939.657z"/><path d="m41.887 57.294a1 1 0 0 1 -.94-1.343l4.961-13.584a1 1 0 0 1 1.879.686l-4.961 13.584a1 1 0 0 1 -.939.657z"/><path d="m45.78 58.706a1 1 0 0 1 -.939-1.343l4.959-13.583a1 1 0 0 1 1.879.686l-4.959 13.583a1 1 0 0 1 -.94.657z"/></g><path d="m38 37.733a.48.48 0 0 1 -.17-.03l-4-1.451a.5.5 0 1 1 .34-.94l4 1.452a.5.5 0 0 1 -.17.969z" fill="#fff"/><path d="m54.635 45.536a4.1 4.1 0 0 0 .127-.5c-.252-.021-.505-.036-.762-.036a10.1 10.1 0 0 0 -1.881.176 11.939 11.939 0 0 1 -8.219-1.311 24.175 24.175 0 0 0 -11.9-2.865 27.163 27.163 0 0 0 -6.895.871l-4.105 11.241 21.744 7.888h6.243z" fill="#ea8e49"/><path d="m41.238 33.918-.761 2.086 3.893 1.413.762-2.087z" fill="#ea8e49"/><path d="m54 47a10.1 10.1 0 0 0 -1.881.176 11.939 11.939 0 0 1 -8.219-1.311 24.175 24.175 0 0 0 -11.9-2.865 27.1 27.1 0 0 0 -7.156.933 12.3 12.3 0 0 1 -7.285-.181 13.988 13.988 0 0 0 -4.559-.752c-6.627 0-12 4.477-12 10v8a2 2 0 0 0 2 2h58a2 2 0 0 0 2-2v-6c0-4.418-4.029-8-9-8z" fill="#dbe6fd"/><path d="m14 60a10 10 0 0 1 -10-10 8.682 8.682 0 0 1 1.449-4.768 9.461 9.461 0 0 0 -4.449 7.768v8a2 2 0 0 0 2 2h58a2 2 0 0 0 2-2v-1z" fill="#bbcff2"/><circle cx="5" cy="39" fill="#dbe6fd" r="2"/><circle cx="17" cy="16" fill="#dbe6fd" r="2"/><path d="m4 29h.586l-.293.293a1 1 0 1 0 1.414 1.414l1.707-1.707h.586v.586l-1.707 1.707a1 1 0 0 0 1.414 1.414l.293-.293v.586a1 1 0 0 0 2 0v-.586l.293.293a1 1 0 0 0 1.414-1.414l-1.707-1.707v-.586h.586l1.707 1.707a1 1 0 0 0 1.414-1.414l-.293-.293h.586a1 1 0 0 0 0-2h-.586l.293-.293a1 1 0 0 0 -1.414-1.414l-1.707 1.707h-.586v-.586l1.707-1.707a1 1 0 0 0 -1.414-1.414l-.293.293v-.586a1 1 0 0 0 -2 0v.586l-.293-.293a1 1 0 0 0 -1.414 1.414l1.707 1.707v.586h-.586l-1.707-1.707a1 1 0 0 0 -1.414 1.414l.293.293h-.586a1 1 0 0 0 0 2z" fill="#dbe6fd"/><path d="m23 25h.586l-.293.293a1 1 0 1 0 1.414 1.414l1.707-1.707h.586v.586l-1.707 1.707a1 1 0 0 0 1.414 1.414l.293-.293v.586a1 1 0 0 0 2 0v-.586l.293.293a1 1 0 0 0 1.414-1.414l-1.707-1.707v-.586h.586l1.707 1.707a1 1 0 0 0 1.414-1.414l-.293-.293h.586a1 1 0 0 0 0-2h-.586l.293-.293a1 1 0 0 0 -1.414-1.414l-1.707 1.707h-.586v-.586l1.707-1.707a1 1 0 0 0 -1.414-1.414l-.293.293v-.586a1 1 0 0 0 -2 0v.586l-.293-.293a1 1 0 0 0 -1.414 1.414l1.707 1.707v.586h-.586l-1.707-1.707a1 1 0 0 0 -1.414 1.414l.293.293h-.586a1 1 0 0 0 0 2z" fill="#dbe6fd"/></g></svg>