<svg id="flat" height="512" viewBox="0 0 64 64" width="512" xmlns="http://www.w3.org/2000/svg"><circle cx="56.9" cy="45.01" fill="#3482f1" r="3.01"/><circle cx="46.86" cy="58" fill="#8fcbf7" r="2"/><circle cx="4.9" cy="54.01" fill="#3482f1" r="3.01"/><circle cx="9.9" cy="43.85" fill="#8fcbf7" r="2"/><circle cx="32.9" cy="54.01" fill="#8fcbf7" r="3.01"/><path d="m51 12c6.63 0 12 5.37 12 12s-5.37 12-12 12h-42c-4.42 0-8-3.58-8-8s3.58-8 8-8h.06c.49-3.95 3.86-7 7.94-7 .69 0 1.37.09 2.01.25-.01-.08-1.01-12.25 11.99-12.25 5 0 6.68 2.51 8.87 4.93 5.13-1.93 8.99.56 9.99 4.87.1.41.16.83.19 1.24.31-.02.63-.04.95-.04z" fill="#d8ecf1"/><g fill="#8fcbf7"><path d="m59.95 32c-2.2 2.46-5.39 4-8.95 4h-42c-4.42 0-8-3.58-8-8s3.58-8 8-8h.06c.49-3.95 3.86-7 7.94-7 .69 0 1.37.09 2.01.25-.01-.08-1.01-12.25 11.99-12.25 1.95 0 3.39.38 4.56.99-2.01 3.37-1.7 7.22-1.69 7.26-.64-.16-1.32-.25-2.01-.25-4.08 0-7.45 3.05-7.94 7h-.06c-4.42 0-8 3.58-8 8s3.58 8 8 8z"/><path d="m16.184 55c.035.098.072.193.116.285l-1.437 1.437c-.391.391-.391 1.023 0 1.414.195.195.451.293.707.293s.512-.098.707-.293l1.437-1.437c.093.044.188.081.285.116v1.06l-1.417 1.417c-.391.391-.391 1.023 0 1.414.196.196.452.294.708.294s.512-.098.707-.293l1.005-1.005 1.005 1.005c.195.195.451.293.707.293s.512-.098.707-.293c.391-.39.391-1.023 0-1.414l-1.421-1.422v-1.055c.098-.035.193-.072.285-.116l1.437 1.437c.195.195.451.293.707.293s.512-.098.707-.293c.391-.391.391-1.023 0-1.414l-1.437-1.437c.044-.093.082-.188.116-.285h1.056l1.421 1.421c.195.195.451.293.707.293s.512-.098.707-.293c.391-.391.391-1.023 0-1.414l-1.005-1.005 1.005-1.005c.391-.391.391-1.023 0-1.414s-1.023-.391-1.414 0l-1.416 1.416h-1.06c-.035-.098-.072-.193-.116-.285l1.437-1.437c.391-.391.391-1.023 0-1.414s-1.023-.391-1.414 0l-1.437 1.437c-.093-.044-.188-.082-.285-.116v-1.056l1.421-1.421c.391-.391.391-1.023 0-1.414s-1.023-.391-1.414 0l-1.005 1.005-1.005-1.005c-.391-.391-1.023-.391-1.414 0s-.391 1.023 0 1.414l1.416 1.416v1.06c-.098.035-.193.072-.285.116l-1.437-1.437c-.391-.391-1.023-.391-1.414 0s-.391 1.023 0 1.414l1.437 1.437c-.044.093-.082.188-.116.285h-1.06l-1.417-1.417c-.391-.391-1.023-.391-1.414 0s-.391 1.023 0 1.414l1.005 1.005-1.005 1.005c-.391.39-.391 1.023 0 1.414.195.195.451.293.707.293s.512-.098.707-.293l1.421-1.42zm1.816-1c0-.552.448-1 1-1s1 .448 1 1-.448 1-1 1-1-.448-1-1z"/><path d="m49.707 43.583c-.391-.391-1.023-.391-1.414 0l-1.417 1.417h-1.06c-.035-.098-.072-.193-.116-.285l1.437-1.437c.391-.391.391-1.023 0-1.414s-1.023-.391-1.414 0l-1.437 1.437c-.093-.044-.188-.082-.285-.116v-1.056l1.421-1.421c.391-.391.391-1.023 0-1.414s-1.023-.391-1.414 0l-1.005 1.005-1.005-1.005c-.391-.391-1.023-.391-1.414 0s-.391 1.023 0 1.414l1.416 1.416v1.06c-.098.035-.193.072-.285.116l-1.437-1.437c-.391-.391-1.023-.391-1.414 0s-.391 1.023 0 1.414l1.437 1.437c-.044.093-.082.188-.116.285h-1.06l-1.417-1.417c-.391-.391-1.023-.391-1.414 0s-.391 1.023 0 1.414l1.005 1.005-1.005 1.005c-.391.39-.391 1.023 0 1.414.195.195.451.293.707.293s.512-.098.707-.293l1.421-1.42h1.056c.035.098.072.193.116.285l-1.437 1.437c-.391.391-.391 1.023 0 1.414.195.195.451.293.707.293s.512-.098.707-.293l1.437-1.437c.093.044.188.081.285.116v1.06l-1.417 1.417c-.391.391-.391 1.023 0 1.414.195.196.451.294.707.294s.512-.098.707-.293l1.005-1.005 1.005 1.005c.195.195.451.293.707.293s.512-.098.707-.293c.391-.39.391-1.023 0-1.414l-1.421-1.422v-1.055c.098-.035.193-.072.285-.116l1.437 1.437c.195.195.451.293.707.293s.512-.098.707-.293c.391-.391.391-1.023 0-1.414l-1.437-1.437c.044-.093.082-.188.116-.285h1.056l1.421 1.421c.195.195.451.293.707.293s.512-.098.707-.293c.391-.391.391-1.023 0-1.414l-1.005-1.005 1.005-1.005c.392-.392.392-1.024.001-1.415zm-5.707 2.417c0 .552-.448 1-1 1s-1-.448-1-1 .448-1 1-1 1 .448 1 1z"/></g><path d="m50 40c-.552 0-1 .448-1 1s.448 1 1 1 1-.448 1-1c-.001-.552-.448-1-1-1z" fill="#3482f1"/><path d="m55 54c-.552 0-1 .448-1 1s.448 1 1 1 1-.448 1-1c-.001-.552-.448-1-1-1z" fill="#8fcbf7"/><path d="m39 59c-.552 0-1 .448-1 1s.448 1 1 1 1-.448 1-1c-.001-.552-.448-1-1-1z" fill="#3482f1"/><path d="m28 45c-.552 0-1 .448-1 1s.448 1 1 1 1-.448 1-1c-.001-.552-.448-1-1-1z" fill="#3482f1"/><path d="m10 60c-.552 0-1 .448-1 1s.448 1 1 1 1-.448 1-1c-.001-.552-.448-1-1-1z" fill="#8fcbf7"/><path d="m3 43c-.552 0-1 .448-1 1s.448 1 1 1 1-.448 1-1c-.001-.552-.448-1-1-1z" fill="#3482f1"/><path d="m18 41.999c.552 0 1-.448 1-1s-.448-1-1-1-1 .448-1 1c0 .553.448 1 1 1z" fill="#3482f1"/></svg>