<svg id="Layer_1" enable-background="new 0 0 64 64" height="512" viewBox="0 0 64 64" width="512" xmlns="http://www.w3.org/2000/svg" xmlns:xlink="http://www.w3.org/1999/xlink"><linearGradient id="SVGID_1_" gradientUnits="userSpaceOnUse" x1="13.177" x2="48.188" y1="46.409" y2="11.398"><stop offset="0" stop-color="#ffb655"/><stop offset="1" stop-color="#ffdaaa"/></linearGradient><linearGradient id="lg1"><stop offset="0" stop-color="#78b9eb"/><stop offset="1" stop-color="#c2dff6"/></linearGradient><linearGradient id="SVGID_2_" gradientUnits="userSpaceOnUse" x1="20.879" x2="27" xlink:href="#lg1" y1="60.121" y2="54"/><linearGradient id="SVGID_3_" gradientUnits="userSpaceOnUse" x1="50.879" x2="57" xlink:href="#lg1" y1="53.121" y2="47"/><linearGradient id="SVGID_4_" gradientUnits="userSpaceOnUse" x1="43.586" x2="47" xlink:href="#lg1" y1="61.414" y2="58"/><linearGradient id="SVGID_5_" gradientUnits="userSpaceOnUse" x1="17.586" x2="21" xlink:href="#lg1" y1="50.414" y2="47"/><linearGradient id="SVGID_6_" gradientUnits="userSpaceOnUse" x1="8.586" x2="12" xlink:href="#lg1" y1="49.414" y2="46"/><linearGradient id="SVGID_7_" gradientUnits="userSpaceOnUse" x1="16.312" x2="48.188" y1="43.275" y2="11.398"><stop offset="0" stop-color="#1a6fb0"/><stop offset="1" stop-color="#5aaae7"/></linearGradient><linearGradient id="SVGID_8_" gradientUnits="userSpaceOnUse" x1="24.312" x2="54.188" xlink:href="#lg1" y1="47.275" y2="17.398"/><g><g><path d="m55 24.056c0-.019 0-.037 0-.056 0-7.72-6.28-14-14-14-.19 0-.385.005-.587.015-1.75-5.939-7.148-10.015-13.413-10.015-6.223 0-11.73 4.195-13.443 10.103-.52-.068-1.041-.103-1.557-.103-6.617 0-12 5.383-12 12s5.383 12 12 12h2.171c.955 5.762 5.889 10 11.829 10h3.461l-1.208 2.818c-.53 1.235-.167 2.685.883 3.524l3.192 2.554-3.059 6.885c-.573 1.292-.157 2.828.989 3.653.512.371 1.119.566 1.752.566.753 0 1.474-.28 2.027-.789l12-11c.694-.637 1.053-1.576.958-2.513s-.634-1.786-1.441-2.271l-2.303-1.381 1.364-2.046h9.385c5.514 0 10-4.486 10-10 0-5.163-3.932-9.424-9-9.944z" fill="url(#SVGID_1_)"/><g><path d="m27 54c-1.357-1.358-4.95.707-6.121 1.879-1.172 1.171-1.172 3.07 0 4.242.586.586 1.353.879 2.121.879s1.535-.293 2.121-.879c1.172-1.171 3.236-4.763 1.879-6.121z" fill="url(#SVGID_2_)"/></g><g><path d="m57 47c-1.357-1.358-4.95.707-6.121 1.879-1.172 1.171-1.172 3.07 0 4.242.586.586 1.353.879 2.121.879s1.535-.293 2.121-.879c1.172-1.171 3.236-4.763 1.879-6.121z" fill="url(#SVGID_3_)"/></g><g><path d="" style="fill:none;stroke:#1a6fb0;stroke-width:2;stroke-linecap:round;stroke-linejoin:round;stroke-miterlimit:10"/></g><g><path d="m47 58c-.829-.829-2.633-.195-3.414.586s-.781 2.047 0 2.828c.391.391.902.586 1.414.586s1.023-.195 1.414-.586c.781-.781 1.415-2.584.586-3.414z" fill="url(#SVGID_4_)"/></g><g><path d="m21 47c-.829-.829-2.633-.195-3.414.586s-.781 2.047 0 2.828c.391.391.902.586 1.414.586s1.023-.195 1.414-.586c.781-.781 1.415-2.584.586-3.414z" fill="url(#SVGID_5_)"/></g><g><path d="m12 46c-.829-.829-2.633-.195-3.414.586s-.781 2.047 0 2.828c.391.391.902.586 1.414.586s1.023-.195 1.414-.586c.781-.781 1.415-2.584.586-3.414z" fill="url(#SVGID_6_)"/></g></g><g><path d="m55 24.056c0-.019 0-.037 0-.056 0-7.72-6.28-14-14-14-.19 0-.385.005-.587.015-1.75-5.939-7.148-10.015-13.413-10.015-6.223 0-11.73 4.195-13.443 10.103-.52-.068-1.041-.103-1.557-.103-6.617 0-12 5.383-12 12s5.383 12 12 12h2.171c.955 5.762 5.889 10 11.829 10h28c5.514 0 10-4.486 10-10 0-5.163-3.932-9.424-9-9.944z" fill="url(#SVGID_7_)"/><path d="m55 24.056c0-.019 0-.037 0-.056 0-7.72-6.28-14-14-14-6.223 0-11.73 4.195-13.443 10.103-.52-.068-1.041-.103-1.557-.103-6.617 0-12 5.383-12 12s5.383 12 12 12h28c5.514 0 10-4.486 10-10 0-5.163-3.932-9.424-9-9.944z" fill="url(#SVGID_8_)"/></g></g></svg>